<svg width="165" height="141" viewBox="0 0 165 141" fill="none" xmlns="http://www.w3.org/2000/svg">
<path d="M3.51128 27.5521H8.49424L17.4227 36.512L26.3511 27.5521H31.3341V52.1211H26.3511V34.4528L17.4227 43.0512L8.49424 34.4528V52.1211H3.51128V27.5521ZM46.7074 27.5521H51.989L63.8726 52.1211H58.6382L56.6733 47.987H42.3218L40.4197 52.1211H35.1696L46.7074 27.5521ZM54.7084 43.8843L49.3954 32.7237L44.2238 43.8843H54.7084ZM67.0636 27.5521H72.078V52.1211H67.0636V27.5521ZM79.5918 44.8117C80.4825 45.3147 81.3837 45.7706 82.2954 46.1793C83.2176 46.5775 84.1713 46.9181 85.1563 47.201C86.1414 47.4735 87.1736 47.6831 88.253 47.8298C89.3428 47.9765 90.5008 48.0498 91.7269 48.0498C93.2045 48.0498 94.462 47.9555 95.4995 47.7669C96.537 47.5678 97.3805 47.3006 98.0303 46.9652C98.6905 46.6194 99.1673 46.2107 99.4607 45.7391C99.7646 45.2676 99.9166 44.7541 99.9166 44.1987C99.9166 43.3079 99.5445 42.6058 98.8005 42.0923C98.0565 41.5683 96.909 41.3063 95.358 41.3063C94.6769 41.3063 93.959 41.3535 93.2045 41.4478C92.45 41.5317 91.685 41.626 90.9095 41.7308C90.1445 41.8356 89.3848 41.9351 88.6302 42.0294C87.8862 42.1133 87.1841 42.1552 86.5239 42.1552C85.4235 42.1552 84.3651 42.0137 83.3486 41.7308C82.3426 41.4478 81.4466 41.0234 80.6607 40.4575C79.8852 39.8916 79.2669 39.1843 78.8058 38.3354C78.3447 37.4866 78.1142 36.4963 78.1142 35.3645C78.1142 34.6938 78.2032 34.0284 78.3814 33.3682C78.57 32.708 78.8634 32.0792 79.2617 31.4819C79.6704 30.8741 80.1943 30.3135 80.8336 29.8C81.4728 29.276 82.243 28.8254 83.1443 28.4481C84.056 28.0709 85.1039 27.7774 86.2881 27.5678C87.4827 27.3478 88.8398 27.2377 90.3593 27.2377C91.4597 27.2377 92.5653 27.3006 93.6761 27.4264C94.7869 27.5417 95.8663 27.7093 96.9142 27.9294C97.9726 28.1495 98.9891 28.4167 99.9637 28.7311C100.938 29.035 101.845 29.3755 102.683 29.7528L100.498 33.7769C99.8065 33.473 99.0625 33.1953 98.2661 32.9438C97.4696 32.6818 96.6365 32.4565 95.7667 32.2679C94.8969 32.0792 93.9957 31.9325 93.063 31.8277C92.1408 31.7125 91.1977 31.6548 90.2336 31.6548C88.8608 31.6548 87.729 31.7544 86.8383 31.9535C85.958 32.1526 85.2559 32.4093 84.7319 32.7237C84.2079 33.0276 83.8412 33.3734 83.6316 33.7612C83.4325 34.1384 83.3329 34.5157 83.3329 34.893C83.3329 35.6265 83.663 36.2291 84.3232 36.7007C84.9834 37.1617 85.9894 37.3923 87.3413 37.3923C87.8862 37.3923 88.5097 37.3556 89.2118 37.2823C89.9244 37.1984 90.6685 37.1093 91.444 37.015C92.2299 36.9207 93.0264 36.8369 93.8333 36.7635C94.6507 36.6797 95.4419 36.6378 96.2069 36.6378C97.653 36.6378 98.9315 36.8002 100.042 37.1251C101.164 37.4499 102.102 37.9163 102.856 38.5241C103.611 39.1214 104.182 39.8497 104.569 40.709C104.957 41.5579 105.151 42.5115 105.151 43.5699C105.151 44.9846 104.821 46.2474 104.161 47.3582C103.511 48.4585 102.578 49.3912 101.363 50.1562C100.158 50.9107 98.701 51.4871 96.9928 51.8853C95.2847 52.273 93.3827 52.4669 91.2868 52.4669C89.9035 52.4669 88.5516 52.3778 87.2312 52.1997C85.9108 52.032 84.6428 51.791 83.4272 51.4766C82.2221 51.1517 81.0694 50.7693 79.969 50.3291C78.8792 49.8785 77.8679 49.386 76.9352 48.8515L79.5918 44.8117ZM4.64306 84.8117C5.53381 85.3147 6.43503 85.7706 7.34674 86.1793C8.26893 86.5775 9.22256 86.9181 10.2076 87.201C11.1927 87.4735 12.2249 87.6831 13.3043 87.8298C14.3941 87.9765 15.5521 88.0498 16.7782 88.0498C18.2558 88.0498 19.5133 87.9555 20.5508 87.7669C21.5883 87.5678 22.4318 87.3006 23.0816 86.9652C23.7418 86.6194 24.2186 86.2107 24.512 85.7391C24.8159 85.2676 24.9679 84.7541 24.9679 84.1987C24.9679 83.3079 24.5958 82.6058 23.8518 82.0923C23.1078 81.5683 21.9603 81.3063 20.4093 81.3063C19.7282 81.3063 19.0103 81.3535 18.2558 81.4478C17.5013 81.5317 16.7363 81.626 15.9608 81.7308C15.1958 81.8356 14.4361 81.9351 13.6815 82.0294C12.9375 82.1133 12.2354 82.1552 11.5752 82.1552C10.4748 82.1552 9.41643 82.0137 8.39992 81.7308C7.3939 81.4478 6.49791 81.0234 5.71196 80.4575C4.93648 79.8916 4.3182 79.1843 3.8571 78.3354C3.39601 77.4866 3.16546 76.4963 3.16546 75.3645C3.16546 74.6938 3.25454 74.0284 3.43269 73.3682C3.62131 72.708 3.91474 72.0792 4.31296 71.4819C4.72165 70.8741 5.24562 70.3135 5.88487 69.8C6.52411 69.276 7.29435 68.8254 8.19557 68.4481C9.10728 68.0709 10.1552 67.7774 11.3394 67.5678C12.534 67.3478 13.8911 67.2377 15.4106 67.2377C16.511 67.2377 17.6166 67.3006 18.7274 67.4264C19.8382 67.5417 20.9176 67.7093 21.9655 67.9294C23.0239 68.1495 24.0404 68.4167 25.015 68.7311C25.9896 69.035 26.8961 69.3755 27.7344 69.7528L25.5495 73.7769C24.8578 73.473 24.1138 73.1953 23.3174 72.9438C22.5209 72.6818 21.6878 72.4565 20.818 72.2679C19.9482 72.0792 19.047 71.9325 18.1143 71.8277C17.1921 71.7125 16.249 71.6548 15.2849 71.6548C13.9121 71.6548 12.7803 71.7544 11.8896 71.9535C11.0093 72.1526 10.3072 72.4093 9.7832 72.7237C9.25923 73.0276 8.89246 73.3734 8.68287 73.7612C8.48376 74.1384 8.3842 74.5157 8.3842 74.893C8.3842 75.6265 8.71431 76.2291 9.37451 76.7007C10.0347 77.1617 11.0407 77.3923 12.3926 77.3923C12.9375 77.3923 13.561 77.3556 14.2631 77.2823C14.9757 77.1984 15.7198 77.1093 16.4953 77.015C17.2812 76.9207 18.0777 76.8369 18.8846 76.7635C19.702 76.6797 20.4932 76.6378 21.2582 76.6378C22.7043 76.6378 23.9828 76.8002 25.0936 77.1251C26.2149 77.4499 27.1528 77.9163 27.9073 78.5241C28.6619 79.1214 29.233 79.8497 29.6207 80.709C30.0085 81.5579 30.2023 82.5115 30.2023 83.5699C30.2023 84.9846 29.8722 86.2474 29.212 87.3582C28.5623 88.4585 27.6296 89.3912 26.414 90.1562C25.2089 90.9107 23.7523 91.4871 22.0441 91.8853C20.336 92.273 18.434 92.4669 16.3381 92.4669C14.9548 92.4669 13.6029 92.3778 12.2825 92.1997C10.9621 92.032 9.69413 91.791 8.47852 91.4766C7.27339 91.1517 6.12065 90.7693 5.02032 90.3291C3.93046 89.8785 2.91919 89.386 1.98653 88.8515L4.64306 84.8117ZM44.0666 67.5521H49.3482L61.2318 92.1211H55.9974L54.0325 87.987H39.6809L37.7789 92.1211H32.5288L44.0666 67.5521ZM52.0676 83.8843L46.7545 72.7237L41.583 83.8843H52.0676ZM65.0516 67.5521H78.177C79.7804 67.5521 81.1741 67.725 82.3583 68.0709C83.553 68.4062 84.5433 68.8725 85.3292 69.4699C86.1152 70.0672 86.6968 70.7798 87.0741 71.6077C87.4618 72.4251 87.6557 73.3106 87.6557 74.2642C87.6557 75.8256 87.1631 77.1932 86.1781 78.3669C87.3098 79.0376 88.1534 79.9073 88.7088 80.9762C89.2642 82.0451 89.542 83.2608 89.542 84.6231C89.542 85.7653 89.3481 86.7976 88.9603 87.7197C88.5831 88.6419 88.0015 89.4331 87.2155 90.0933C86.44 90.7431 85.455 91.2461 84.2603 91.6024C83.0762 91.9482 81.6772 92.1211 80.0633 92.1211H65.0516V67.5521ZM80.0948 76.9836C80.5244 76.9836 80.9436 76.9993 81.3523 77.0308C82.0544 76.3601 82.4055 75.5951 82.4055 74.7358C82.4055 73.845 82.0544 73.1586 81.3523 72.6766C80.6607 72.184 79.6442 71.9378 78.3028 71.9378H70.0345V76.9836H80.0948ZM80.1891 87.7826C81.5304 87.7826 82.547 87.4944 83.2386 86.9181C83.9407 86.3417 84.2918 85.5295 84.2918 84.4816C84.2918 83.4337 83.9407 82.6163 83.2386 82.0294C82.547 81.4426 81.5304 81.1492 80.1891 81.1492H70.0345V87.7826H80.1891ZM93.1573 79.7659C93.1573 77.911 93.4979 76.2134 94.1791 74.6729C94.8602 73.1324 95.8139 71.812 97.04 70.7117C98.2765 69.6009 99.7541 68.7415 101.473 68.1337C103.202 67.5259 105.114 67.222 107.21 67.222C109.296 67.222 111.203 67.5259 112.932 68.1337C114.661 68.7415 116.139 69.6009 117.365 70.7117C118.601 71.812 119.56 73.1324 120.241 74.6729C120.923 76.2134 121.263 77.911 121.263 79.7659C121.263 81.6312 120.923 83.3446 120.241 84.906C119.56 86.457 118.601 87.7931 117.365 88.9144C116.139 90.0357 114.661 90.9107 112.932 91.5395C111.203 92.1578 109.296 92.4669 107.21 92.4669C105.114 92.4669 103.202 92.1578 101.473 91.5395C99.7541 90.9107 98.2765 90.0357 97.04 88.9144C95.8139 87.7931 94.8602 86.457 94.1791 84.906C93.4979 83.3446 93.1573 81.6312 93.1573 79.7659ZM98.1403 79.7659C98.1403 81.0339 98.3656 82.1761 98.8162 83.1926C99.2773 84.2091 99.9113 85.0789 100.718 85.802C101.536 86.5146 102.494 87.0648 103.595 87.4525C104.706 87.8403 105.911 88.0341 107.21 88.0341C108.51 88.0341 109.71 87.8403 110.81 87.4525C111.921 87.0648 112.88 86.5146 113.686 85.802C114.493 85.0789 115.127 84.2091 115.589 83.1926C116.05 82.1761 116.28 81.0339 116.28 79.7659C116.28 78.4979 116.05 77.3609 115.589 76.3548C115.127 75.3488 114.493 74.5 113.686 73.8083C112.88 73.1062 111.921 72.5718 110.81 72.205C109.71 71.8382 108.51 71.6548 107.21 71.6548C105.911 71.6548 104.706 71.8382 103.595 72.205C102.494 72.5718 101.536 73.1062 100.718 73.8083C99.9113 74.5 99.2773 75.3488 98.8162 76.3548C98.3656 77.3609 98.1403 78.4979 98.1403 79.7659ZM126.796 67.5521H139.293C141.179 67.5521 142.814 67.7512 144.197 68.1495C145.581 68.5372 146.728 69.1031 147.64 69.8471C148.551 70.5912 149.227 71.4976 149.668 72.5665C150.118 73.6354 150.343 74.8458 150.343 76.1976C150.343 77.1093 150.233 77.9791 150.013 78.807C149.793 79.6244 149.453 80.3789 148.992 81.0706C148.541 81.7622 147.97 82.3805 147.278 82.9254C146.587 83.4599 145.774 83.9052 144.842 84.2615L150.186 92.1211H144.087L139.466 85.1418H139.324L131.779 85.1261V92.1211H126.796V67.5521ZM139.419 80.8191C140.362 80.8191 141.184 80.709 141.887 80.489C142.599 80.2689 143.191 79.9597 143.663 79.5615C144.145 79.1633 144.501 78.6813 144.732 78.1154C144.973 77.539 145.093 76.8998 145.093 76.1976C145.093 74.8248 144.622 73.7664 143.679 73.0224C142.735 72.2679 141.315 71.8906 139.419 71.8906H131.779V80.8191H139.419Z" fill="white"/>
<path d="M138.634 36.973C139.585 36.973 140.298 37.1767 140.773 37.5842C141.283 37.9578 141.537 38.5181 141.537 39.2652C141.537 39.9444 141.283 40.4878 140.773 40.8953C140.264 41.3028 139.551 41.5065 138.634 41.5065H131.299V48.0267C131.299 48.8757 131.061 49.521 130.586 49.9624C130.144 50.4039 129.482 50.6246 128.599 50.6246C127.784 50.6246 127.139 50.4039 126.663 49.9624C126.222 49.487 126.001 48.8418 126.001 48.0267V41.5065H118.615C117.698 41.5065 116.985 41.3028 116.475 40.8953C115.966 40.4878 115.711 39.9444 115.711 39.2652C115.711 38.5181 115.949 37.9578 116.424 37.5842C116.934 37.1767 117.664 36.973 118.615 36.973H126.001V30.3509C126.001 29.5359 126.222 28.9076 126.663 28.4661C127.139 27.9907 127.784 27.753 128.599 27.753C129.482 27.753 130.144 27.9737 130.586 28.4152C131.061 28.8567 131.299 29.5019 131.299 30.3509V36.973H138.634Z" fill="#E22E46"/>
<line y1="110.725" x2="165" y2="110.725" stroke="#EFD93F" stroke-width="1.86239"/>
<path d="M7.84828 135.928C7.29192 135.928 6.787 135.824 6.33353 135.614C5.88006 135.401 5.51995 135.094 5.2532 134.694C4.98645 134.29 4.85308 133.802 4.85308 133.23C4.85308 132.727 4.95216 132.32 5.15031 132.007C5.34847 131.691 5.61331 131.443 5.94484 131.264C6.27637 131.085 6.6422 130.952 7.04232 130.864C7.44625 130.773 7.85209 130.7 8.25984 130.647C8.79333 130.578 9.22585 130.527 9.55738 130.492C9.89272 130.454 10.1366 130.391 10.289 130.304C10.4453 130.216 10.5234 130.064 10.5234 129.847V129.801C10.5234 129.237 10.3691 128.799 10.0604 128.486C9.75553 128.174 9.29253 128.017 8.67139 128.017C8.02738 128.017 7.52247 128.158 7.15664 128.44C6.79082 128.722 6.53359 129.023 6.38498 129.344L5.10458 128.886C5.33323 128.353 5.63808 127.937 6.01915 127.64C6.40403 127.339 6.82321 127.13 7.27668 127.011C7.73396 126.889 8.18362 126.829 8.62566 126.829C8.90765 126.829 9.23156 126.863 9.59739 126.931C9.96703 126.996 10.3233 127.131 10.6663 127.337C11.0131 127.543 11.3008 127.854 11.5294 128.269C11.7581 128.684 11.8724 129.241 11.8724 129.938V135.723H10.5234V134.534H10.4548C10.3633 134.724 10.2109 134.928 9.99751 135.145C9.78411 135.363 9.50022 135.547 9.14582 135.7C8.79143 135.852 8.35892 135.928 7.84828 135.928ZM8.05406 134.717C8.58756 134.717 9.03722 134.612 9.40305 134.402C9.77268 134.193 10.0509 133.922 10.2376 133.591C10.4281 133.259 10.5234 132.91 10.5234 132.545V131.31C10.4662 131.378 10.3405 131.441 10.1461 131.499C9.9556 131.552 9.73457 131.599 9.48307 131.641C9.23537 131.68 8.9934 131.714 8.75713 131.744C8.52468 131.771 8.33605 131.794 8.19124 131.813C7.84066 131.859 7.51294 131.933 7.20809 132.036C6.90704 132.135 6.66316 132.285 6.47643 132.487C6.29352 132.686 6.20206 132.956 6.20206 133.299C6.20206 133.768 6.37545 134.122 6.72222 134.362C7.07281 134.599 7.51675 134.717 8.05406 134.717ZM19.8686 124.016V135.723H18.5196V124.016H19.8686ZM26.5244 135.723V126.943H27.8734V135.723H26.5244ZM27.2103 125.48C26.9474 125.48 26.7207 125.39 26.5301 125.211C26.3434 125.032 26.25 124.816 26.25 124.565C26.25 124.313 26.3434 124.098 26.5301 123.919C26.7207 123.74 26.9474 123.65 27.2103 123.65C27.4733 123.65 27.6981 123.74 27.8848 123.919C28.0754 124.098 28.1706 124.313 28.1706 124.565C28.1706 124.816 28.0754 125.032 27.8848 125.211C27.6981 125.39 27.4733 125.48 27.2103 125.48ZM34.5292 135.723V126.943H35.8325V128.315H35.9468C36.1297 127.846 36.425 127.482 36.8328 127.223C37.2405 126.96 37.7302 126.829 38.3018 126.829C38.881 126.829 39.3631 126.96 39.748 127.223C40.1366 127.482 40.4396 127.846 40.6568 128.315H40.7483C40.9731 127.861 41.3103 127.501 41.76 127.234C42.2097 126.964 42.7489 126.829 43.3776 126.829C44.1626 126.829 44.8047 127.074 45.3039 127.566C45.8031 128.054 46.0527 128.814 46.0527 129.847V135.723H44.7038V129.847C44.7038 129.199 44.5266 128.736 44.1722 128.458C43.8178 128.179 43.4005 128.04 42.9204 128.04C42.303 128.04 41.8248 128.227 41.4856 128.6C41.1465 128.97 40.9769 129.439 40.9769 130.007V135.723H39.605V129.709C39.605 129.21 39.4431 128.808 39.1192 128.503C38.7953 128.195 38.378 128.04 37.8674 128.04C37.5168 128.04 37.1891 128.134 36.8842 128.32C36.5832 128.507 36.3393 128.766 36.1526 129.098C35.9696 129.425 35.8782 129.805 35.8782 130.235V135.723H34.5292ZM56.3854 135.906C55.5394 135.906 54.8097 135.719 54.1962 135.345C53.5864 134.968 53.1158 134.442 52.7843 133.768C52.4566 133.089 52.2927 132.301 52.2927 131.401C52.2927 130.502 52.4566 129.709 52.7843 129.023C53.1158 128.334 53.5769 127.796 54.1676 127.412C54.762 127.023 55.4556 126.829 56.2482 126.829C56.7055 126.829 57.1571 126.905 57.6029 127.057C58.0488 127.21 58.4546 127.457 58.8204 127.8C59.1863 128.139 59.4778 128.589 59.695 129.149C59.9122 129.709 60.0208 130.399 60.0208 131.218V131.79H53.253V130.624H58.6489C58.6489 130.129 58.5499 129.687 58.3517 129.298C58.1574 128.909 57.8792 128.602 57.5172 128.378C57.159 128.153 56.736 128.04 56.2482 128.04C55.7109 128.04 55.246 128.174 54.8535 128.44C54.4648 128.703 54.1657 129.046 53.9561 129.469C53.7465 129.892 53.6417 130.346 53.6417 130.83V131.607C53.6417 132.27 53.756 132.832 53.9847 133.293C54.2171 133.751 54.5391 134.099 54.9507 134.339C55.3622 134.576 55.8405 134.694 56.3854 134.694C56.7398 134.694 57.0599 134.644 57.3457 134.545C57.6353 134.442 57.8849 134.29 58.0945 134.088C58.3041 133.882 58.466 133.627 58.5804 133.322L59.8836 133.688C59.7464 134.13 59.5159 134.518 59.192 134.854C58.8681 135.185 58.4679 135.444 57.9916 135.631C57.5153 135.814 56.9799 135.906 56.3854 135.906ZM67.6069 130.441V135.723H66.2579V126.943H67.5612V128.315H67.6755C67.8813 127.869 68.1937 127.511 68.6129 127.24C69.0321 126.966 69.5732 126.829 70.2363 126.829C70.8307 126.829 71.3509 126.95 71.7967 127.194C72.2426 127.434 72.5894 127.8 72.8371 128.292C73.0848 128.78 73.2086 129.397 73.2086 130.144V135.723H71.8596V130.235C71.8596 129.546 71.6805 129.008 71.3223 128.623C70.9641 128.235 70.4725 128.04 69.8476 128.04C69.417 128.04 69.0321 128.134 68.6929 128.32C68.3576 128.507 68.0928 128.78 67.8984 129.138C67.7041 129.496 67.6069 129.93 67.6069 130.441ZM83.677 126.943V128.086H79.1271V126.943H83.677ZM80.4532 124.839H81.8022V133.208C81.8022 133.589 81.8574 133.874 81.9679 134.065C82.0822 134.252 82.2271 134.377 82.4023 134.442C82.5815 134.503 82.7701 134.534 82.9682 134.534C83.1169 134.534 83.2388 134.526 83.3341 134.511C83.4293 134.492 83.5055 134.477 83.5627 134.465L83.8371 135.677C83.7456 135.711 83.618 135.746 83.4541 135.78C83.2902 135.818 83.0826 135.837 82.8311 135.837C82.45 135.837 82.0765 135.755 81.7107 135.591C81.3487 135.427 81.0476 135.178 80.8076 134.842C80.5713 134.507 80.4532 134.084 80.4532 133.573V124.839ZM92.4749 135.928C91.9186 135.928 91.4136 135.824 90.9602 135.614C90.5067 135.401 90.1466 135.094 89.8798 134.694C89.6131 134.29 89.4797 133.802 89.4797 133.23C89.4797 132.727 89.5788 132.32 89.777 132.007C89.9751 131.691 90.24 131.443 90.5715 131.264C90.903 131.085 91.2688 130.952 91.669 130.864C92.0729 130.773 92.4787 130.7 92.8865 130.647C93.42 130.578 93.8525 130.527 94.184 130.492C94.5194 130.454 94.7632 130.391 94.9157 130.304C95.0719 130.216 95.15 130.064 95.15 129.847V129.801C95.15 129.237 94.9957 128.799 94.687 128.486C94.3822 128.174 93.9192 128.017 93.298 128.017C92.654 128.017 92.1491 128.158 91.7833 128.44C91.4175 128.722 91.1602 129.023 91.0116 129.344L89.7312 128.886C89.9599 128.353 90.2647 127.937 90.6458 127.64C91.0307 127.339 91.4498 127.13 91.9033 127.011C92.3606 126.889 92.8103 126.829 93.2523 126.829C93.5343 126.829 93.8582 126.863 94.224 126.931C94.5937 126.996 94.95 127.131 95.2929 127.337C95.6397 127.543 95.9274 127.854 96.1561 128.269C96.3847 128.684 96.499 129.241 96.499 129.938V135.723H95.15V134.534H95.0814C94.99 134.724 94.8376 134.928 94.6242 135.145C94.4108 135.363 94.1269 135.547 93.7725 135.7C93.4181 135.852 92.9856 135.928 92.4749 135.928ZM92.6807 134.717C93.2142 134.717 93.6639 134.612 94.0297 134.402C94.3993 134.193 94.6775 133.922 94.8642 133.591C95.0548 133.259 95.15 132.91 95.15 132.545V131.31C95.0929 131.378 94.9671 131.441 94.7728 131.499C94.5822 131.552 94.3612 131.599 94.1097 131.641C93.862 131.68 93.62 131.714 93.3838 131.744C93.1513 131.771 92.9627 131.794 92.8179 131.813C92.4673 131.859 92.1396 131.933 91.8347 132.036C91.5337 132.135 91.2898 132.285 91.1031 132.487C90.9202 132.686 90.8287 132.956 90.8287 133.299C90.8287 133.768 91.0021 134.122 91.3489 134.362C91.6994 134.599 92.1434 134.717 92.6807 134.717ZM106.713 135.906C105.89 135.906 105.181 135.711 104.587 135.323C103.992 134.934 103.535 134.398 103.215 133.716C102.895 133.034 102.735 132.255 102.735 131.378C102.735 130.487 102.899 129.7 103.226 129.018C103.558 128.332 104.019 127.796 104.61 127.412C105.204 127.023 105.898 126.829 106.69 126.829C107.308 126.829 107.864 126.943 108.359 127.171C108.855 127.4 109.261 127.72 109.577 128.132C109.893 128.543 110.089 129.023 110.166 129.572H108.817C108.714 129.172 108.485 128.818 108.131 128.509C107.78 128.197 107.308 128.04 106.713 128.04C106.187 128.04 105.726 128.177 105.33 128.452C104.937 128.722 104.631 129.105 104.409 129.601C104.192 130.092 104.084 130.67 104.084 131.333C104.084 132.011 104.19 132.602 104.404 133.105C104.621 133.608 104.926 133.998 105.318 134.276C105.715 134.555 106.18 134.694 106.713 134.694C107.064 134.694 107.382 134.633 107.668 134.511C107.953 134.389 108.195 134.214 108.394 133.985C108.592 133.756 108.733 133.482 108.817 133.162H110.166C110.089 133.68 109.901 134.147 109.6 134.562C109.302 134.974 108.908 135.302 108.416 135.545C107.929 135.786 107.361 135.906 106.713 135.906ZM106.073 135.677H107.193L107.102 136.134C107.399 136.18 107.671 136.304 107.919 136.506C108.167 136.712 108.291 137.037 108.291 137.483C108.291 137.975 108.087 138.375 107.679 138.684C107.275 138.996 106.679 139.152 105.89 139.152L105.844 138.261C106.199 138.261 106.492 138.203 106.724 138.089C106.961 137.979 107.079 137.792 107.079 137.529C107.079 137.266 106.982 137.087 106.787 136.992C106.593 136.896 106.279 136.832 105.844 136.797L106.073 135.677ZM118.906 135.928C118.35 135.928 117.845 135.824 117.392 135.614C116.938 135.401 116.578 135.094 116.311 134.694C116.044 134.29 115.911 133.802 115.911 133.23C115.911 132.727 116.01 132.32 116.208 132.007C116.406 131.691 116.671 131.443 117.003 131.264C117.334 131.085 117.7 130.952 118.1 130.864C118.504 130.773 118.91 130.7 119.318 130.647C119.851 130.578 120.284 130.527 120.615 130.492C120.951 130.454 121.195 130.391 121.347 130.304C121.503 130.216 121.581 130.064 121.581 129.847V129.801C121.581 129.237 121.427 128.799 121.118 128.486C120.814 128.174 120.351 128.017 119.729 128.017C119.085 128.017 118.58 128.158 118.215 128.44C117.849 128.722 117.592 129.023 117.443 129.344L116.163 128.886C116.391 128.353 116.696 127.937 117.077 127.64C117.462 127.339 117.881 127.13 118.335 127.011C118.792 126.889 119.242 126.829 119.684 126.829C119.966 126.829 120.29 126.863 120.655 126.931C121.025 126.996 121.381 127.131 121.724 127.337C122.071 127.543 122.359 127.854 122.587 128.269C122.816 128.684 122.93 129.241 122.93 129.938V135.723H121.581V134.534H121.513C121.421 134.724 121.269 134.928 121.056 135.145C120.842 135.363 120.558 135.547 120.204 135.7C119.849 135.852 119.417 135.928 118.906 135.928ZM119.112 134.717C119.646 134.717 120.095 134.612 120.461 134.402C120.831 134.193 121.109 133.922 121.296 133.591C121.486 133.259 121.581 132.91 121.581 132.545V131.31C121.524 131.378 121.398 131.441 121.204 131.499C121.014 131.552 120.793 131.599 120.541 131.641C120.293 131.68 120.051 131.714 119.815 131.744C119.583 131.771 119.394 131.794 119.249 131.813C118.899 131.859 118.571 131.933 118.266 132.036C117.965 132.135 117.721 132.285 117.534 132.487C117.352 132.686 117.26 132.956 117.26 133.299C117.26 133.768 117.433 134.122 117.78 134.362C118.131 134.599 118.575 134.717 119.112 134.717ZM118.015 125.891L116.963 125.845C116.963 125.262 117.129 124.786 117.46 124.416C117.795 124.043 118.209 123.856 118.701 123.856C118.918 123.856 119.11 123.894 119.278 123.97C119.445 124.043 119.606 124.127 119.758 124.222C119.91 124.317 120.067 124.403 120.227 124.479C120.391 124.552 120.575 124.588 120.781 124.588C120.998 124.588 121.181 124.504 121.33 124.336C121.482 124.165 121.559 123.959 121.559 123.719L122.587 123.81C122.587 124.405 122.42 124.877 122.084 125.228C121.753 125.579 121.341 125.754 120.85 125.754C120.587 125.754 120.37 125.718 120.198 125.645C120.027 125.569 119.874 125.483 119.741 125.388C119.607 125.293 119.466 125.209 119.318 125.137C119.169 125.06 118.986 125.022 118.769 125.022C118.552 125.022 118.371 125.108 118.226 125.279C118.085 125.447 118.015 125.651 118.015 125.891ZM133.144 135.906C132.352 135.906 131.656 135.717 131.058 135.34C130.464 134.962 129.999 134.435 129.663 133.756C129.332 133.078 129.166 132.285 129.166 131.378C129.166 130.464 129.332 129.666 129.663 128.983C129.999 128.301 130.464 127.772 131.058 127.394C131.656 127.017 132.352 126.829 133.144 126.829C133.937 126.829 134.631 127.017 135.225 127.394C135.823 127.772 136.288 128.301 136.62 128.983C136.955 129.666 137.123 130.464 137.123 131.378C137.123 132.285 136.955 133.078 136.62 133.756C136.288 134.435 135.823 134.962 135.225 135.34C134.631 135.717 133.937 135.906 133.144 135.906ZM133.144 134.694C133.747 134.694 134.242 134.539 134.631 134.231C135.019 133.922 135.307 133.516 135.494 133.013C135.68 132.51 135.774 131.965 135.774 131.378C135.774 130.792 135.68 130.245 135.494 129.738C135.307 129.231 135.019 128.821 134.631 128.509C134.242 128.197 133.747 128.04 133.144 128.04C132.542 128.04 132.047 128.197 131.658 128.509C131.27 128.821 130.982 129.231 130.795 129.738C130.608 130.245 130.515 130.792 130.515 131.378C130.515 131.965 130.608 132.51 130.795 133.013C130.982 133.516 131.27 133.922 131.658 134.231C132.047 134.539 132.542 134.694 133.144 134.694Z" fill="#D7D7D7"/>
</svg>
