<svg width="319" height="76" viewBox="0 0 319 76" fill="none" xmlns="http://www.w3.org/2000/svg">
<path d="M101.76 73.0587C101.274 73.0587 100.833 72.9671 100.436 72.784C100.04 72.5976 99.7257 72.3297 99.4927 71.9801C99.2597 71.6273 99.1432 71.2012 99.1432 70.7019C99.1432 70.2625 99.2297 69.9063 99.4028 69.6334C99.5759 69.3571 99.8073 69.1407 100.097 68.9843C100.386 68.8278 100.706 68.7113 101.056 68.6348C101.408 68.5549 101.763 68.4916 102.119 68.445C102.585 68.3851 102.963 68.3402 103.253 68.3102C103.545 68.2769 103.759 68.222 103.892 68.1454C104.028 68.0689 104.096 67.9357 104.096 67.746V67.706C104.096 67.2134 103.962 66.8306 103.692 66.5576C103.426 66.2847 103.021 66.1482 102.479 66.1482C101.916 66.1482 101.475 66.2714 101.155 66.5177C100.836 66.764 100.611 67.027 100.481 67.3066L99.3629 66.9071C99.5626 66.4411 99.8289 66.0783 100.162 65.8186C100.498 65.5557 100.864 65.3726 101.26 65.2694C101.66 65.1629 102.053 65.1096 102.439 65.1096C102.685 65.1096 102.968 65.1396 103.287 65.1995C103.61 65.2561 103.922 65.3743 104.221 65.554C104.524 65.7338 104.775 66.0051 104.975 66.3679C105.175 66.7307 105.275 67.2167 105.275 67.8259V72.8789H104.096V71.8403H104.036C103.957 72.0068 103.823 72.1849 103.637 72.3746C103.451 72.5643 103.203 72.7258 102.893 72.8589C102.583 72.9921 102.206 73.0587 101.76 73.0587ZM101.939 72.0001C102.405 72.0001 102.798 71.9086 103.118 71.7255C103.441 71.5424 103.684 71.3061 103.847 71.0165C104.013 70.7269 104.096 70.4223 104.096 70.1027V69.0242C104.046 69.0841 103.937 69.1391 103.767 69.189C103.6 69.2356 103.407 69.2772 103.188 69.3138C102.971 69.3471 102.76 69.3771 102.553 69.4037C102.35 69.427 102.186 69.447 102.059 69.4636C101.753 69.5036 101.467 69.5685 101.2 69.6583C100.937 69.7449 100.724 69.8764 100.561 70.0528C100.401 70.2259 100.322 70.4622 100.322 70.7618C100.322 71.1713 100.473 71.4808 100.776 71.6905C101.082 71.8969 101.47 72.0001 101.939 72.0001ZM112.26 62.653V72.8789H111.081V62.653H112.26ZM118.074 72.8789V65.2095H119.252V72.8789H118.074ZM118.673 63.9312C118.443 63.9312 118.245 63.853 118.079 63.6966C117.916 63.5401 117.834 63.352 117.834 63.1323C117.834 62.9127 117.916 62.7246 118.079 62.5681C118.245 62.4117 118.443 62.3335 118.673 62.3335C118.903 62.3335 119.099 62.4117 119.262 62.5681C119.428 62.7246 119.512 62.9127 119.512 63.1323C119.512 63.352 119.428 63.5401 119.262 63.6966C119.099 63.853 118.903 63.9312 118.673 63.9312ZM125.066 72.8789V65.2095H126.205V66.4078H126.304C126.464 65.9984 126.722 65.6805 127.078 65.4541C127.434 65.2245 127.862 65.1096 128.362 65.1096C128.868 65.1096 129.289 65.2245 129.625 65.4541C129.964 65.6805 130.229 65.9984 130.419 66.4078H130.499C130.695 66.0117 130.99 65.6971 131.382 65.4641C131.775 65.2278 132.246 65.1096 132.795 65.1096C133.481 65.1096 134.042 65.3243 134.478 65.7537C134.914 66.1798 135.132 66.8439 135.132 67.746V72.8789H133.954V67.746C133.954 67.1801 133.799 66.7757 133.489 66.5327C133.18 66.2897 132.815 66.1682 132.396 66.1682C131.857 66.1682 131.439 66.3313 131.143 66.6575C130.846 66.9804 130.698 67.3898 130.698 67.8858V72.8789H129.5V67.6262C129.5 67.1901 129.359 66.8389 129.076 66.5726C128.793 66.303 128.428 66.1682 127.982 66.1682C127.676 66.1682 127.39 66.2497 127.123 66.4128C126.86 66.5759 126.647 66.8023 126.484 67.0919C126.324 67.3782 126.244 67.7094 126.244 68.0855V72.8789H125.066ZM144.158 73.0387C143.419 73.0387 142.782 72.8756 142.246 72.5494C141.713 72.2198 141.302 71.7604 141.012 71.1713C140.726 70.5787 140.583 69.8897 140.583 69.1041C140.583 68.3185 140.726 67.6262 141.012 67.027C141.302 66.4245 141.705 65.9551 142.221 65.6189C142.74 65.2794 143.346 65.1096 144.038 65.1096C144.438 65.1096 144.832 65.1762 145.222 65.3093C145.611 65.4425 145.966 65.6589 146.285 65.9585C146.605 66.2547 146.859 66.6475 147.049 67.1368C147.239 67.6262 147.334 68.2287 147.334 68.9443V69.4436H141.422V68.425H146.135C146.135 67.9923 146.049 67.6062 145.876 67.2666C145.706 66.9271 145.463 66.6592 145.147 66.4628C144.834 66.2664 144.464 66.1682 144.038 66.1682C143.569 66.1682 143.163 66.2847 142.82 66.5177C142.48 66.7474 142.219 67.047 142.036 67.4164C141.853 67.7859 141.761 68.1821 141.761 68.6048V69.2839C141.761 69.8631 141.861 70.3541 142.061 70.7568C142.264 71.1563 142.545 71.4609 142.905 71.6706C143.264 71.877 143.682 71.9801 144.158 71.9801C144.468 71.9801 144.747 71.9369 144.997 71.8503C145.25 71.7604 145.468 71.6273 145.651 71.4509C145.834 71.2711 145.976 71.0481 146.075 70.7818L147.214 71.1014C147.094 71.4875 146.893 71.827 146.61 72.12C146.327 72.4096 145.977 72.6359 145.561 72.799C145.145 72.9588 144.677 73.0387 144.158 73.0387ZM153.96 68.2653V72.8789H152.782V65.2095H153.92V66.4078H154.02C154.2 66.0184 154.473 65.7055 154.839 65.4691C155.205 65.2295 155.678 65.1096 156.257 65.1096C156.776 65.1096 157.231 65.2161 157.62 65.4292C158.01 65.6389 158.313 65.9585 158.529 66.3879C158.745 66.8139 158.854 67.3532 158.854 68.0056V72.8789H157.675V68.0855C157.675 67.483 157.519 67.0137 157.206 66.6775C156.893 66.3379 156.464 66.1682 155.918 66.1682C155.541 66.1682 155.205 66.2497 154.909 66.4128C154.616 66.5759 154.385 66.8139 154.215 67.1268C154.045 67.4397 153.96 67.8192 153.96 68.2653ZM167.998 65.2095V66.2081H164.024V65.2095H167.998ZM165.182 63.372H166.36V70.6819C166.36 71.0148 166.409 71.2645 166.505 71.4309C166.605 71.594 166.731 71.7039 166.885 71.7604C167.041 71.8137 167.206 71.8403 167.379 71.8403C167.509 71.8403 167.615 71.8337 167.698 71.8204C167.782 71.8037 167.848 71.7904 167.898 71.7804L168.138 72.839C168.058 72.8689 167.946 72.8989 167.803 72.9288C167.66 72.9621 167.479 72.9788 167.259 72.9788C166.926 72.9788 166.6 72.9072 166.28 72.7641C165.964 72.6209 165.701 72.4029 165.491 72.11C165.285 71.817 165.182 71.4475 165.182 71.0015V63.372ZM175.683 73.0587C175.197 73.0587 174.756 72.9671 174.36 72.784C173.964 72.5976 173.649 72.3297 173.416 71.9801C173.183 71.6273 173.067 71.2012 173.067 70.7019C173.067 70.2625 173.153 69.9063 173.326 69.6334C173.5 69.3571 173.731 69.1407 174.021 68.9843C174.31 68.8278 174.63 68.7113 174.979 68.6348C175.332 68.5549 175.687 68.4916 176.043 68.445C176.509 68.3851 176.887 68.3402 177.176 68.3102C177.469 68.2769 177.682 68.222 177.815 68.1454C177.952 68.0689 178.02 67.9357 178.02 67.746V67.706C178.02 67.2134 177.885 66.8306 177.616 66.5576C177.349 66.2847 176.945 66.1482 176.402 66.1482C175.84 66.1482 175.399 66.2714 175.079 66.5177C174.76 66.764 174.535 67.027 174.405 67.3066L173.287 66.9071C173.486 66.4411 173.753 66.0783 174.085 65.8186C174.422 65.5557 174.788 65.3726 175.184 65.2694C175.583 65.1629 175.976 65.1096 176.362 65.1096C176.609 65.1096 176.892 65.1396 177.211 65.1995C177.534 65.2561 177.845 65.3743 178.145 65.554C178.448 65.7338 178.699 66.0051 178.899 66.3679C179.099 66.7307 179.198 67.2167 179.198 67.8259V72.8789H178.02V71.8403H177.96C177.88 72.0068 177.747 72.1849 177.561 72.3746C177.374 72.5643 177.126 72.7258 176.817 72.8589C176.507 72.9921 176.129 73.0587 175.683 73.0587ZM175.863 72.0001C176.329 72.0001 176.722 71.9086 177.041 71.7255C177.364 71.5424 177.607 71.3061 177.77 71.0165C177.937 70.7269 178.02 70.4223 178.02 70.1027V69.0242C177.97 69.0841 177.86 69.1391 177.69 69.189C177.524 69.2356 177.331 69.2772 177.111 69.3138C176.895 69.3471 176.684 69.3771 176.477 69.4037C176.274 69.427 176.109 69.447 175.983 69.4636C175.677 69.5036 175.39 69.5685 175.124 69.6583C174.861 69.7449 174.648 69.8764 174.485 70.0528C174.325 70.2259 174.245 70.4622 174.245 70.7618C174.245 71.1713 174.397 71.4808 174.7 71.6905C175.006 71.8969 175.394 72.0001 175.863 72.0001ZM188.121 73.0387C187.402 73.0387 186.782 72.8689 186.263 72.5294C185.744 72.1899 185.344 71.7222 185.065 71.1263C184.785 70.5305 184.645 69.8498 184.645 69.0841C184.645 68.3052 184.789 67.6178 185.075 67.022C185.364 66.4228 185.767 65.9551 186.283 65.6189C186.802 65.2794 187.408 65.1096 188.101 65.1096C188.64 65.1096 189.126 65.2095 189.559 65.4092C189.991 65.6089 190.346 65.8885 190.622 66.2481C190.898 66.6076 191.07 67.027 191.136 67.5063H189.958C189.868 67.1568 189.668 66.8472 189.359 66.5776C189.053 66.3046 188.64 66.1682 188.121 66.1682C187.661 66.1682 187.258 66.288 186.912 66.5277C186.569 66.764 186.301 67.0985 186.108 67.5313C185.919 67.9607 185.824 68.465 185.824 69.0442C185.824 69.6367 185.917 70.1527 186.103 70.5921C186.293 71.0315 186.559 71.3727 186.902 71.6156C187.248 71.8586 187.655 71.9801 188.121 71.9801C188.427 71.9801 188.705 71.9269 188.954 71.8204C189.204 71.7138 189.416 71.5607 189.589 71.361C189.762 71.1613 189.885 70.9216 189.958 70.642H191.136C191.07 71.0947 190.905 71.5025 190.642 71.8653C190.383 72.2248 190.038 72.5111 189.609 72.7241C189.182 72.9338 188.687 73.0387 188.121 73.0387ZM187.561 72.839H188.54L188.46 73.2384C188.72 73.2784 188.958 73.3865 189.174 73.563C189.391 73.7427 189.499 74.0273 189.499 74.4168C189.499 74.8462 189.321 75.1957 188.964 75.4653C188.612 75.7383 188.091 75.8748 187.402 75.8748L187.362 75.0958C187.671 75.0958 187.928 75.0459 188.131 74.9461C188.337 74.8495 188.44 74.6864 188.44 74.4567C188.44 74.227 188.355 74.0706 188.186 73.9874C188.016 73.9042 187.741 73.8476 187.362 73.8176L187.561 72.839ZM198.772 73.0587C198.286 73.0587 197.845 72.9671 197.449 72.784C197.052 72.5976 196.738 72.3297 196.505 71.9801C196.272 71.6273 196.155 71.2012 196.155 70.7019C196.155 70.2625 196.242 69.9063 196.415 69.6334C196.588 69.3571 196.819 69.1407 197.109 68.9843C197.399 68.8278 197.718 68.7113 198.068 68.6348C198.421 68.5549 198.775 68.4916 199.131 68.445C199.597 68.3851 199.975 68.3402 200.265 68.3102C200.558 68.2769 200.771 68.222 200.904 68.1454C201.04 68.0689 201.109 67.9357 201.109 67.746V67.706C201.109 67.2134 200.974 66.8306 200.704 66.5576C200.438 66.2847 200.033 66.1482 199.491 66.1482C198.928 66.1482 198.487 66.2714 198.168 66.5177C197.848 66.764 197.623 67.027 197.493 67.3066L196.375 66.9071C196.575 66.4411 196.841 66.0783 197.174 65.8186C197.51 65.5557 197.876 65.3726 198.272 65.2694C198.672 65.1629 199.065 65.1096 199.451 65.1096C199.697 65.1096 199.98 65.1396 200.3 65.1995C200.623 65.2561 200.934 65.3743 201.233 65.554C201.536 65.7338 201.788 66.0051 201.987 66.3679C202.187 66.7307 202.287 67.2167 202.287 67.8259V72.8789H201.109V71.8403H201.049C200.969 72.0068 200.836 72.1849 200.649 72.3746C200.463 72.5643 200.215 72.7258 199.905 72.8589C199.596 72.9921 199.218 73.0587 198.772 73.0587ZM198.951 72.0001C199.418 72.0001 199.81 71.9086 200.13 71.7255C200.453 71.5424 200.696 71.3061 200.859 71.0165C201.025 70.7269 201.109 70.4223 201.109 70.1027V69.0242C201.059 69.0841 200.949 69.1391 200.779 69.189C200.613 69.2356 200.419 69.2772 200.2 69.3138C199.983 69.3471 199.772 69.3771 199.566 69.4037C199.363 69.427 199.198 69.447 199.071 69.4636C198.765 69.5036 198.479 69.5685 198.213 69.6583C197.95 69.7449 197.736 69.8764 197.573 70.0528C197.414 70.2259 197.334 70.4622 197.334 70.7618C197.334 71.1713 197.485 71.4808 197.788 71.6905C198.094 71.8969 198.482 72.0001 198.951 72.0001ZM197.993 64.2908L197.074 64.2508C197.074 63.7415 197.219 63.3254 197.508 63.0025C197.801 62.6763 198.163 62.5132 198.592 62.5132C198.782 62.5132 198.95 62.5465 199.096 62.6131C199.243 62.6763 199.383 62.7495 199.516 62.8328C199.649 62.916 199.785 62.9909 199.925 63.0575C200.068 63.1207 200.23 63.1523 200.409 63.1523C200.599 63.1523 200.759 63.0791 200.889 62.9326C201.022 62.7828 201.089 62.6031 201.089 62.3934L201.987 62.4733C201.987 62.9925 201.841 63.4053 201.548 63.7116C201.258 64.0178 200.899 64.1709 200.469 64.1709C200.24 64.1709 200.05 64.1393 199.9 64.076C199.75 64.0095 199.617 63.9346 199.501 63.8514C199.384 63.7681 199.261 63.6949 199.131 63.6317C199.001 63.5651 198.842 63.5318 198.652 63.5318C198.462 63.5318 198.304 63.6067 198.178 63.7565C198.054 63.903 197.993 64.081 197.993 64.2908ZM211.209 73.0387C210.517 73.0387 209.909 72.8739 209.387 72.5444C208.867 72.2148 208.461 71.7538 208.168 71.1613C207.879 70.5688 207.734 69.8764 207.734 69.0841C207.734 68.2852 207.879 67.5879 208.168 66.992C208.461 66.3962 208.867 65.9335 209.387 65.6039C209.909 65.2744 210.517 65.1096 211.209 65.1096C211.902 65.1096 212.507 65.2744 213.027 65.6039C213.549 65.9335 213.955 66.3962 214.245 66.992C214.538 67.5879 214.684 68.2852 214.684 69.0841C214.684 69.8764 214.538 70.5688 214.245 71.1613C213.955 71.7538 213.549 72.2148 213.027 72.5444C212.507 72.8739 211.902 73.0387 211.209 73.0387ZM211.209 71.9801C211.735 71.9801 212.168 71.8453 212.507 71.5757C212.847 71.3061 213.098 70.9516 213.261 70.5122C213.424 70.0728 213.506 69.5968 213.506 69.0841C213.506 68.5715 213.424 68.0938 213.261 67.6511C213.098 67.2084 212.847 66.8506 212.507 66.5776C212.168 66.3046 211.735 66.1682 211.209 66.1682C210.683 66.1682 210.25 66.3046 209.911 66.5776C209.571 66.8506 209.32 67.2084 209.157 67.6511C208.994 68.0938 208.912 68.5715 208.912 69.0841C208.912 69.5968 208.994 70.0728 209.157 70.5122C209.32 70.9516 209.571 71.3061 209.911 71.5757C210.25 71.8453 210.683 71.9801 211.209 71.9801Z" fill="#D9D9D9"/>
<line x1="53.6061" y1="47.8936" x2="268.03" y2="47.8936" stroke="#D2B906" stroke-width="0.878788"/>
<path d="M147.166 24.8155C147.81 24.8155 148.293 24.9536 148.616 25.2298C148.961 25.4829 149.134 25.8627 149.134 26.369C149.134 26.8294 148.961 27.1976 148.616 27.4738C148.27 27.75 147.787 27.8881 147.166 27.8881H142.194V32.3071C142.194 32.8825 142.033 33.3198 141.711 33.619C141.412 33.9183 140.963 34.0679 140.364 34.0679C139.812 34.0679 139.375 33.9183 139.053 33.619C138.753 33.2968 138.604 32.8595 138.604 32.3071V27.8881H133.598C132.976 27.8881 132.493 27.75 132.148 27.4738C131.803 27.1976 131.63 26.8294 131.63 26.369C131.63 25.8627 131.791 25.4829 132.113 25.2298C132.459 24.9536 132.953 24.8155 133.598 24.8155H138.604V20.3274C138.604 19.775 138.753 19.3492 139.053 19.05C139.375 18.7278 139.812 18.5667 140.364 18.5667C140.963 18.5667 141.412 18.7163 141.711 19.0155C142.033 19.3147 142.194 19.752 142.194 20.3274V24.8155H147.166Z" fill="#E22E46"/>
<path d="M15.4989 8.17294H20.9399L30.6889 17.9563L40.438 8.17294H45.8789V35H40.438V15.7079L30.6889 25.0965L20.9399 15.7079V35H15.4989V8.17294ZM62.6651 8.17294H68.4322L81.408 35H75.6925L73.547 30.4859H57.8764L55.7996 35H50.0669L62.6651 8.17294ZM71.4015 26.0062L65.6001 13.8198L59.9532 26.0062H71.4015ZM84.8923 8.17294H90.3675V35H84.8923V8.17294ZM98.5719 27.0188C99.5445 27.5681 100.529 28.0658 101.524 28.5121C102.531 28.9469 103.572 29.3188 104.648 29.6277C105.723 29.9252 106.851 30.1541 108.029 30.3143C109.219 30.4745 110.484 30.5546 111.822 30.5546C113.436 30.5546 114.809 30.4516 115.942 30.2456C117.074 30.0282 117.996 29.7364 118.705 29.3703C119.426 28.9927 119.947 28.5464 120.267 28.0315C120.599 27.5166 120.765 26.9559 120.765 26.3494C120.765 25.3768 120.358 24.6102 119.546 24.0495C118.734 23.4774 117.481 23.1913 115.787 23.1913C115.043 23.1913 114.26 23.2428 113.436 23.3458C112.612 23.4373 111.777 23.5403 110.93 23.6547C110.094 23.7691 109.265 23.8778 108.441 23.9808C107.629 24.0724 106.862 24.1181 106.141 24.1181C104.94 24.1181 103.784 23.9637 102.674 23.6547C101.576 23.3458 100.597 22.8823 99.739 22.2644C98.8922 21.6465 98.2171 20.8742 97.7137 19.9473C97.2102 19.0205 96.9585 17.9392 96.9585 16.7034C96.9585 15.971 97.0557 15.2444 97.2502 14.5236C97.4562 13.8027 97.7766 13.1161 98.2114 12.4639C98.6577 11.8002 99.2298 11.1881 99.9278 10.6274C100.626 10.0552 101.467 9.56321 102.451 9.15128C103.446 8.73935 104.591 8.41895 105.884 8.1901C107.188 7.94981 108.67 7.82966 110.329 7.82966C111.531 7.82966 112.738 7.89832 113.951 8.03563C115.164 8.1615 116.342 8.34458 117.486 8.58487C118.642 8.82517 119.752 9.11695 120.816 9.46023C121.88 9.79206 122.87 10.1639 123.786 10.5759L121.4 14.9698C120.645 14.638 119.832 14.3348 118.962 14.0601C118.093 13.7741 117.183 13.5281 116.233 13.3221C115.284 13.1161 114.3 12.9559 113.281 12.8415C112.274 12.7156 111.244 12.6527 110.192 12.6527C108.693 12.6527 107.457 12.7614 106.484 12.9788C105.523 13.1962 104.757 13.4766 104.184 13.8198C103.612 14.1517 103.212 14.5293 102.983 14.9527C102.766 15.3646 102.657 15.7765 102.657 16.1884C102.657 16.9894 103.017 17.6474 103.738 18.1623C104.459 18.6658 105.558 18.9175 107.034 18.9175C107.629 18.9175 108.309 18.8774 109.076 18.7973C109.854 18.7058 110.667 18.6085 111.513 18.5056C112.372 18.4026 113.241 18.311 114.122 18.2309C115.015 18.1394 115.879 18.0936 116.714 18.0936C118.293 18.0936 119.689 18.271 120.902 18.6257C122.126 18.9804 123.15 19.4896 123.974 20.1533C124.798 20.8055 125.422 21.6008 125.845 22.5391C126.269 23.4659 126.48 24.5072 126.48 25.6629C126.48 27.2076 126.12 28.5865 125.399 29.7994C124.689 31.0008 123.671 32.0192 122.344 32.8545C121.028 33.6784 119.437 34.3077 117.572 34.7425C115.707 35.1659 113.63 35.3776 111.342 35.3776C109.831 35.3776 108.355 35.2803 106.913 35.0858C105.472 34.9027 104.087 34.6396 102.76 34.2963C101.444 33.9416 100.185 33.5239 98.9838 33.0433C97.7938 32.5513 96.6896 32.0135 95.6712 31.4299L98.5719 27.0188ZM157.066 27.0188C158.039 27.5681 159.023 28.0658 160.018 28.5121C161.025 28.9469 162.067 29.3188 163.142 29.6277C164.218 29.9252 165.345 30.1541 166.523 30.3143C167.713 30.4745 168.978 30.5546 170.317 30.5546C171.93 30.5546 173.303 30.4516 174.436 30.2456C175.569 30.0282 176.49 29.7364 177.199 29.3703C177.92 28.9927 178.441 28.5464 178.761 28.0315C179.093 27.5166 179.259 26.9559 179.259 26.3494C179.259 25.3768 178.853 24.6102 178.04 24.0495C177.228 23.4774 175.975 23.1913 174.281 23.1913C173.538 23.1913 172.754 23.2428 171.93 23.3458C171.106 23.4373 170.271 23.5403 169.424 23.6547C168.589 23.7691 167.759 23.8778 166.935 23.9808C166.123 24.0724 165.356 24.1181 164.635 24.1181C163.434 24.1181 162.278 23.9637 161.168 23.6547C160.07 23.3458 159.091 22.8823 158.233 22.2644C157.387 21.6465 156.711 20.8742 156.208 19.9473C155.705 19.0205 155.453 17.9392 155.453 16.7034C155.453 15.971 155.55 15.2444 155.745 14.5236C155.951 13.8027 156.271 13.1161 156.706 12.4639C157.152 11.8002 157.724 11.1881 158.422 10.6274C159.12 10.0552 159.961 9.56321 160.945 9.15128C161.941 8.73935 163.085 8.41895 164.378 8.1901C165.682 7.94981 167.164 7.82966 168.823 7.82966C170.025 7.82966 171.232 7.89832 172.445 8.03563C173.658 8.1615 174.836 8.34458 175.981 8.58487C177.136 8.82517 178.246 9.11695 179.31 9.46023C180.375 9.79206 181.364 10.1639 182.28 10.5759L179.894 14.9698C179.139 14.638 178.326 14.3348 177.457 14.0601C176.587 13.7741 175.677 13.5281 174.728 13.3221C173.778 13.1161 172.794 12.9559 171.776 12.8415C170.769 12.7156 169.739 12.6527 168.686 12.6527C167.187 12.6527 165.951 12.7614 164.979 12.9788C164.018 13.1962 163.251 13.4766 162.679 13.8198C162.107 14.1517 161.706 14.5293 161.477 14.9527C161.26 15.3646 161.151 15.7765 161.151 16.1884C161.151 16.9894 161.512 17.6474 162.232 18.1623C162.953 18.6658 164.052 18.9175 165.528 18.9175C166.123 18.9175 166.804 18.8774 167.57 18.7973C168.349 18.7058 169.161 18.6085 170.008 18.5056C170.866 18.4026 171.736 18.311 172.617 18.2309C173.509 18.1394 174.373 18.0936 175.208 18.0936C176.787 18.0936 178.183 18.271 179.396 18.6257C180.621 18.9804 181.645 19.4896 182.469 20.1533C183.292 20.8055 183.916 21.6008 184.339 22.5391C184.763 23.4659 184.975 24.5072 184.975 25.6629C184.975 27.2076 184.614 28.5865 183.893 29.7994C183.184 31.0008 182.165 32.0192 180.838 32.8545C179.522 33.6784 177.932 34.3077 176.067 34.7425C174.201 35.1659 172.125 35.3776 169.836 35.3776C168.326 35.3776 166.85 35.2803 165.408 35.0858C163.966 34.9027 162.581 34.6396 161.254 34.2963C159.938 33.9416 158.68 33.5239 157.478 33.0433C156.288 32.5513 155.184 32.0135 154.165 31.4299L157.066 27.0188ZM200.113 8.17294H205.88L218.856 35H213.14L210.995 30.4859H195.324L193.248 35H187.515L200.113 8.17294ZM208.849 26.0062L203.048 13.8198L197.401 26.0062H208.849ZM223.027 8.17294H237.359C239.109 8.17294 240.631 8.36174 241.924 8.73935C243.229 9.10551 244.31 9.6147 245.168 10.2669C246.026 10.9192 246.661 11.6972 247.073 12.6012C247.497 13.4937 247.708 14.4606 247.708 15.5019C247.708 17.2068 247.171 18.7001 246.095 19.9817C247.331 20.714 248.252 21.6637 248.858 22.8308C249.465 23.998 249.768 25.3253 249.768 26.8129C249.768 28.0601 249.556 29.1872 249.133 30.1941C248.721 31.2011 248.086 32.065 247.228 32.7859C246.381 33.4953 245.305 34.0445 244.001 34.4336C242.708 34.8112 241.18 35 239.418 35H223.027V8.17294ZM239.453 18.4712C239.922 18.4712 240.379 18.4884 240.826 18.5227C241.592 17.7904 241.976 16.9551 241.976 16.0168C241.976 15.0442 241.592 14.2947 240.826 13.7683C240.07 13.2305 238.961 12.9616 237.496 12.9616H228.468V18.4712H239.453ZM239.556 30.2628C241.02 30.2628 242.13 29.9481 242.885 29.3188C243.652 28.6894 244.035 27.8026 244.035 26.6584C244.035 25.5141 243.652 24.6216 242.885 23.9808C242.13 23.34 241.02 23.0196 239.556 23.0196H228.468V30.2628H239.556ZM253.716 21.5092C253.716 19.4839 254.088 17.6302 254.831 15.9482C255.575 14.2661 256.616 12.8243 257.955 11.6229C259.305 10.41 260.919 9.47167 262.795 8.808C264.683 8.14433 266.772 7.8125 269.06 7.8125C271.337 7.8125 273.42 8.14433 275.308 8.808C277.196 9.47167 278.809 10.41 280.148 11.6229C281.498 12.8243 282.545 14.2661 283.289 15.9482C284.033 17.6302 284.405 19.4839 284.405 21.5092C284.405 23.546 284.033 25.4169 283.289 27.1218C282.545 28.8153 281.498 30.2742 280.148 31.4986C278.809 32.7229 277.196 33.6784 275.308 34.3649C273.42 35.04 271.337 35.3776 269.06 35.3776C266.772 35.3776 264.683 35.04 262.795 34.3649C260.919 33.6784 259.305 32.7229 257.955 31.4986C256.616 30.2742 255.575 28.8153 254.831 27.1218C254.088 25.4169 253.716 23.546 253.716 21.5092ZM259.157 21.5092C259.157 22.8938 259.403 24.141 259.895 25.2509C260.398 26.3609 261.09 27.3106 261.971 28.1001C262.864 28.8782 263.911 29.479 265.112 29.9023C266.325 30.3257 267.641 30.5374 269.06 30.5374C270.479 30.5374 271.789 30.3257 272.991 29.9023C274.204 29.479 275.251 28.8782 276.132 28.1001C277.013 27.3106 277.705 26.3609 278.208 25.2509C278.712 24.141 278.964 22.8938 278.964 21.5092C278.964 20.1247 278.712 18.8832 278.208 17.7847C277.705 16.6862 277.013 15.7594 276.132 15.0041C275.251 14.2375 274.204 13.6539 272.991 13.2534C271.789 12.8529 270.479 12.6527 269.06 12.6527C267.641 12.6527 266.325 12.8529 265.112 13.2534C263.911 13.6539 262.864 14.2375 261.971 15.0041C261.09 15.7594 260.398 16.6862 259.895 17.7847C259.403 18.8832 259.157 20.1247 259.157 21.5092ZM290.446 8.17294H304.092C306.151 8.17294 307.936 8.39035 309.447 8.82517C310.957 9.24854 312.21 9.86644 313.205 10.6789C314.201 11.4913 314.939 12.4811 315.42 13.6482C315.912 14.8153 316.158 16.137 316.158 17.613C316.158 18.6085 316.038 19.5583 315.797 20.4622C315.557 21.3548 315.185 22.1786 314.682 22.9338C314.19 23.689 313.566 24.3641 312.811 24.9592C312.056 25.5427 311.169 26.029 310.15 26.4181L315.986 35H309.326L304.28 27.3793H304.126L295.887 27.3621V35H290.446V8.17294ZM304.229 22.6592C305.259 22.6592 306.157 22.5391 306.924 22.2988C307.702 22.0585 308.348 21.7209 308.863 21.2861C309.389 20.8513 309.778 20.3249 310.03 19.707C310.293 19.0777 310.425 18.3797 310.425 17.613C310.425 16.1141 309.91 14.9584 308.88 14.146C307.85 13.3221 306.3 12.9102 304.229 12.9102H295.887V22.6592H304.229Z" fill="white"/>
</svg>
