<svg width="64" height="64" viewBox="0 0 64 64" fill="none" xmlns="http://www.w3.org/2000/svg">
<path d="M58.5779 27.7996C58.574 24.3777 57.2129 21.0971 54.7932 18.6774C52.3735 16.2577 49.0929 14.8966 45.6709 14.8926C45.0253 14.8941 44.3807 14.943 43.7423 15.0391C42.7802 12.6519 41.1263 10.6068 38.9931 9.16669C36.8599 7.72654 34.3449 6.95703 31.7711 6.95703C29.1973 6.95703 26.6822 7.72654 24.5491 9.16669C22.4159 10.6068 20.762 12.6519 19.7999 15.0391C19.1614 14.943 18.5168 14.8941 17.8713 14.8926C14.8875 14.8926 11.9958 15.9264 9.68836 17.8181C7.38087 19.7098 5.80007 22.3425 5.2149 25.2684C4.62973 28.1942 5.07635 31.2324 6.47876 33.8661C7.88118 36.4998 10.1528 38.5662 12.907 39.7138V51.6279C12.907 52.4179 13.2208 53.1755 13.7794 53.7341C14.338 54.2927 15.0956 54.6065 15.8856 54.6065H47.6566C48.4466 54.6065 49.2042 54.2927 49.7628 53.7341C50.3214 53.1755 50.6352 52.4179 50.6352 51.6279V39.7138C52.986 38.7318 54.9941 37.077 56.4073 34.9572C57.8205 32.8374 58.5756 30.3473 58.5779 27.7996ZM48.6495 51.6279C48.6495 51.8913 48.5449 52.1438 48.3587 52.33C48.1725 52.5162 47.9199 52.6208 47.6566 52.6208H15.8856C15.6222 52.6208 15.3697 52.5162 15.1835 52.33C14.9973 52.1438 14.8927 51.8913 14.8927 51.6279V40.3567C15.8686 40.5887 16.8682 40.7061 17.8713 40.7066H45.6709C46.674 40.7061 47.6736 40.5887 48.6495 40.3567V51.6279ZM45.6709 38.721H40.9847L42.6626 32.0192C42.7214 31.7656 42.6782 31.499 42.5424 31.2769C42.4065 31.0548 42.1888 30.8949 41.9362 30.8318C41.6836 30.7686 41.4163 30.8072 41.1919 30.9393C40.9675 31.0713 40.804 31.2862 40.7365 31.5377L38.9394 38.7358H32.7639V31.771C32.7639 31.5077 32.6593 31.2552 32.4731 31.069C32.2869 30.8828 32.0344 30.7782 31.7711 30.7782C31.5078 30.7782 31.2552 30.8828 31.069 31.069C30.8829 31.2552 30.7782 31.5077 30.7782 31.771V38.721H24.6027L22.8057 31.5228C22.7731 31.3963 22.7159 31.2775 22.6374 31.1732C22.5589 31.0688 22.4606 30.9809 22.3481 30.9145C22.2356 30.8482 22.1112 30.8046 21.9819 30.7863C21.8525 30.768 21.7209 30.7754 21.5944 30.808C21.468 30.8406 21.3491 30.8978 21.2448 30.9763C21.1404 31.0548 21.0525 31.1531 20.9861 31.2656C20.9198 31.378 20.8762 31.5025 20.8579 31.6318C20.8396 31.7611 20.847 31.8928 20.8796 32.0192L22.5575 38.721H17.8713C14.9747 38.721 12.1969 37.5703 10.1487 35.5222C8.10058 33.474 6.94995 30.6962 6.94995 27.7996C6.94995 24.9031 8.10058 22.1253 10.1487 20.0771C12.1969 18.029 14.9747 16.8783 17.8713 16.8783C18.3143 16.8793 18.7569 16.9067 19.1967 16.9603C18.9761 17.91 18.8646 18.8818 18.8641 19.8569C18.8641 20.1202 18.9687 20.3727 19.1549 20.5589C19.3411 20.7451 19.5936 20.8497 19.8569 20.8497C20.1203 20.8497 20.3728 20.7451 20.559 20.5589C20.7452 20.3727 20.8498 20.1202 20.8498 19.8569C20.8498 16.9604 22.0004 14.1825 24.0486 12.1343C26.0967 10.0862 28.8746 8.93557 31.7711 8.93557C34.6676 8.93557 37.4455 10.0862 39.4936 12.1343C41.5418 14.1825 42.6924 16.9604 42.6924 19.8569C42.6924 20.1202 42.797 20.3727 42.9832 20.5589C43.1694 20.7451 43.4219 20.8497 43.6852 20.8497C43.9486 20.8497 44.2011 20.7451 44.3873 20.5589C44.5735 20.3727 44.6781 20.1202 44.6781 19.8569C44.6776 18.8818 44.566 17.91 44.3455 16.9603C44.7853 16.9067 45.2279 16.8793 45.6709 16.8783C48.5674 16.8783 51.3453 18.029 53.3935 20.0771C55.4416 22.1253 56.5922 24.9031 56.5922 27.7996C56.5922 30.6962 55.4416 33.474 53.3935 35.5222C51.3453 37.5703 48.5674 38.721 45.6709 38.721Z" fill="#E22E46"/>
</svg>
