<svg width="59" height="59" viewBox="0 0 59 59" fill="none" xmlns="http://www.w3.org/2000/svg">
<path d="M9.74892 8.21878C9.90376 7.28626 10.3852 6.43918 11.1071 5.82895C11.829 5.21871 12.7445 4.88509 13.6898 4.88771C14.6722 4.88771 15.5716 5.23964 16.2705 5.82251C17.0287 5.21707 17.9703 4.88743 18.9405 4.88771C19.9499 4.88771 20.8786 5.23719 21.6105 5.82251C22.3339 5.21687 23.2478 4.88585 24.1913 4.88771C25.1366 4.88509 26.052 5.21871 26.774 5.82895C27.4959 6.43918 27.9773 7.28626 28.1321 8.21878C28.5818 10.9706 29.3272 16.0418 29.3272 19.5513C29.3285 21.2018 28.9359 22.8289 28.182 24.2972C27.4282 25.7656 26.3349 27.0329 24.9929 27.9938C24.2109 28.5559 23.8284 29.2341 23.8284 29.8146C23.8284 29.861 23.8296 29.8928 23.8321 29.9294C23.9396 31.2687 25.0504 45.1734 25.0504 47.6565C25.0504 49.2769 24.4066 50.8309 23.2608 51.9767C22.115 53.1226 20.561 53.7663 18.9405 53.7663C17.3201 53.7663 15.766 53.1226 14.6202 51.9767C13.4744 50.8309 12.8307 49.2769 12.8307 47.6565C12.8307 45.1734 13.9415 31.2687 14.0478 29.9294C14.0512 29.8912 14.0528 29.8529 14.0527 29.8146C14.0527 29.2341 13.6714 28.5559 12.8881 27.9938C11.5462 27.0329 10.4529 25.7656 9.69905 24.2972C8.94521 22.8289 8.55261 21.2018 8.55384 19.5513C8.55384 16.0418 9.29923 10.9706 9.74892 8.21878ZM23.2174 20.4678C23.2174 20.8729 23.0565 21.2614 22.77 21.5478C22.4836 21.8343 22.0951 21.9952 21.69 21.9952C21.2848 21.9952 20.8963 21.8343 20.6099 21.5478C20.3234 21.2614 20.1625 20.8729 20.1625 20.4678V9.16459C20.1625 8.8405 20.0338 8.52969 19.8046 8.30053C19.5754 8.07136 19.2646 7.94262 18.9405 7.94262C18.6164 7.94262 18.3056 8.07136 18.0765 8.30053C17.8473 8.52969 17.7186 8.8405 17.7186 9.16459V20.4678C17.7186 20.8729 17.5576 21.2614 17.2712 21.5478C16.9847 21.8343 16.5962 21.9952 16.1911 21.9952C15.786 21.9952 15.3975 21.8343 15.111 21.5478C14.8246 21.2614 14.6637 20.8729 14.6637 20.4678V8.91653C14.6637 8.65823 14.561 8.41051 14.3784 8.22787C14.1958 8.04523 13.948 7.94262 13.6898 7.94262C13.2156 7.94262 12.8344 8.27622 12.7635 8.71246C12.3114 11.4827 11.6087 16.3241 11.6087 19.5513C11.6075 20.7168 11.8847 21.8657 12.4171 22.9025C12.9495 23.9393 13.7218 24.8339 14.6698 25.512C15.9162 26.4065 17.1076 27.8985 17.1076 29.8133C17.1076 29.9331 17.1039 30.0455 17.0941 30.1738C16.9768 31.6243 15.8856 45.3347 15.8856 47.6565C15.8856 48.4667 16.2075 49.2437 16.7804 49.8166C17.3533 50.3895 18.1303 50.7114 18.9405 50.7114C19.7507 50.7114 20.5278 50.3895 21.1007 49.8166C21.6736 49.2437 21.9954 48.4667 21.9954 47.6565C21.9954 45.3347 20.9042 31.6243 20.7881 30.1738C20.7788 30.0543 20.774 29.9345 20.7735 29.8146C20.7735 27.8985 21.9649 26.4053 23.2113 25.512C24.1592 24.8339 24.9315 23.9393 25.464 22.9025C25.9964 21.8657 26.2735 20.7168 26.2723 19.5513C26.2723 16.3241 25.5697 11.4827 25.1176 8.71246C25.0798 8.49501 24.9659 8.2981 24.7962 8.15703C24.6264 8.01596 24.412 7.93995 24.1913 7.94262C23.933 7.94262 23.6853 8.04523 23.5027 8.22787C23.32 8.41051 23.2174 8.65823 23.2174 8.91653V20.4678ZM44.6018 7.98172V27.7995C44.6018 28.5205 44.8315 31.8687 45.0845 35.5407L45.1016 35.79C45.4437 40.7585 45.8237 46.3013 45.8237 47.6565C45.8237 48.4667 45.5019 49.2437 44.929 49.8166C44.3561 50.3895 43.579 50.7114 42.7688 50.7114C41.9586 50.7114 41.1816 50.3895 40.6087 49.8166C40.0358 49.2437 39.7139 48.4667 39.7139 47.6565C39.7139 46.4565 40.0133 41.5637 40.3212 36.8787C40.5019 34.1371 40.688 31.3958 40.8797 28.6549L40.9322 27.9071C40.947 27.6979 40.9185 27.488 40.8486 27.2903C40.7787 27.0927 40.6689 26.9115 40.526 26.7581C40.383 26.6048 40.21 26.4825 40.0178 26.3988C39.8255 26.3152 39.6181 26.2721 39.4084 26.2721H35.7425C35.4995 26.2721 35.2664 26.1755 35.0945 26.0037C34.9226 25.8318 34.8261 25.5987 34.8261 25.3556V18.6348C34.826 15.9577 35.8302 13.3779 37.6403 11.4054C39.4503 9.43291 41.9345 8.21119 44.6018 7.98172ZM37.771 29.327L37.694 30.4414C37.5792 32.1057 37.4252 34.3517 37.2737 36.6783C36.9706 41.29 36.659 46.3257 36.659 47.6565C36.659 49.2769 37.3027 50.8309 38.4485 51.9767C39.5944 53.1226 41.1484 53.7663 42.7688 53.7663C44.3893 53.7663 45.9433 53.1226 47.0891 51.9767C48.2349 50.8309 48.8787 49.2769 48.8787 47.6565C48.8787 46.1791 48.4937 40.5764 48.1601 35.7399L48.1491 35.581C47.8828 31.7049 47.6567 28.3983 47.6567 27.7995V6.41517C47.6567 5.57201 46.9724 4.88771 46.1292 4.88771H45.5183C37.9262 4.88771 31.7712 11.0427 31.7712 18.6348V25.3556C31.7712 26.4089 32.1896 27.419 32.9343 28.1638C33.6791 28.9086 34.6893 29.327 35.7425 29.327H37.771Z" fill="#E22E46"/>
</svg>
