<svg width="24" height="25" viewBox="0 0 24 25" fill="none" xmlns="http://www.w3.org/2000/svg">
<g clip-path="url(#clip0_104_287)">
<path d="M11.9979 0.835938C8.74198 0.835938 8.33255 0.850935 7.05328 0.907925C5.774 0.967915 4.90265 1.16888 4.13928 1.46583C3.33819 1.76626 2.61276 2.23879 2.01415 2.85009C1.40285 3.4487 0.930327 4.17412 0.629891 4.97522C0.332942 5.73709 0.130477 6.60994 0.0719875 7.88471C0.0149974 9.16699 0 9.57492 0 12.8354C0 16.0928 0.0149974 16.5007 0.0719875 17.78C0.131977 19.0578 0.332942 19.9291 0.629891 20.6925C0.937337 21.4814 1.34677 22.1502 2.01415 22.8176C2.68004 23.485 3.34892 23.8959 4.13778 24.2019C4.90265 24.4988 5.7725 24.7013 7.05028 24.7598C8.33105 24.8168 8.73898 24.8318 11.9979 24.8318C15.2569 24.8318 15.6633 24.8168 16.9441 24.7598C18.2203 24.6998 19.0947 24.4988 19.8581 24.2019C20.6586 23.9013 21.3835 23.4287 21.9817 22.8176C22.6491 22.1502 23.0585 21.4814 23.3659 20.6925C23.6614 19.9291 23.8639 19.0578 23.9238 17.78C23.9808 16.5007 23.9958 16.0928 23.9958 12.8339C23.9958 9.57492 23.9808 9.16699 23.9238 7.88621C23.8639 6.60994 23.6614 5.73709 23.3659 4.97522C23.0655 4.17412 22.593 3.4487 21.9817 2.85009C21.3831 2.23879 20.6576 1.76626 19.8566 1.46583C19.0917 1.16888 18.2188 0.966415 16.9426 0.907925C15.6618 0.850935 15.2554 0.835938 11.9949 0.835938H11.9979ZM10.9226 2.99856H11.9994C15.2029 2.99856 15.5823 3.00906 16.8466 3.06755C18.0164 3.12004 18.6523 3.31651 19.0752 3.47998C19.6346 3.69744 20.035 3.9584 20.455 4.37832C20.8749 4.79825 21.1343 5.19718 21.3518 5.75808C21.5168 6.17951 21.7117 6.8154 21.7642 7.9852C21.8227 9.24948 21.8347 9.62891 21.8347 12.8309C21.8347 16.0328 21.8227 16.4137 21.7642 17.678C21.7117 18.8478 21.5153 19.4822 21.3518 19.9051C21.1581 20.4254 20.8512 20.8961 20.4535 21.2834C20.0335 21.7033 19.6346 21.9628 19.0737 22.1802C18.6538 22.3452 18.0179 22.5402 16.8466 22.5942C15.5823 22.6512 15.2029 22.6647 11.9994 22.6647C8.79597 22.6647 8.41504 22.6512 7.15076 22.5942C5.98096 22.5402 5.34657 22.3452 4.92365 22.1802C4.40299 21.9872 3.93172 21.6808 3.54388 21.2834C3.14536 20.8959 2.838 20.4246 2.64404 19.9036C2.48057 19.4822 2.2841 18.8463 2.23161 17.6765C2.17462 16.4122 2.16262 16.0328 2.16262 12.8279C2.16262 9.62291 2.17462 9.24648 2.23161 7.9822C2.2856 6.8124 2.48057 6.17651 2.64554 5.75358C2.863 5.19418 3.12396 4.79375 3.54388 4.37382C3.96381 3.9539 4.36274 3.69444 4.92365 3.47698C5.34657 3.31201 5.98096 3.11704 7.15076 3.06305C8.25757 3.01206 8.68649 2.99706 10.9226 2.99556V2.99856ZM18.4033 4.99022C18.2142 4.99022 18.027 5.02746 17.8523 5.09981C17.6777 5.17217 17.5189 5.27822 17.3852 5.41191C17.2516 5.5456 17.1455 5.70432 17.0732 5.879C17.0008 6.05368 16.9636 6.2409 16.9636 6.42997C16.9636 6.61904 17.0008 6.80626 17.0732 6.98094C17.1455 7.15561 17.2516 7.31433 17.3852 7.44802C17.5189 7.58172 17.6777 7.68777 17.8523 7.76012C18.027 7.83248 18.2142 7.86972 18.4033 7.86972C18.7852 7.86972 19.1514 7.71803 19.4214 7.44802C19.6914 7.17802 19.8431 6.81181 19.8431 6.42997C19.8431 6.04812 19.6914 5.68192 19.4214 5.41191C19.1514 5.1419 18.7852 4.99022 18.4033 4.99022ZM11.9994 6.67292C11.1822 6.66017 10.3705 6.81013 9.6118 7.11406C8.85306 7.41799 8.16236 7.86982 7.57991 8.44325C6.99747 9.01668 6.53491 9.70025 6.21918 10.4542C5.90345 11.2081 5.74085 12.0173 5.74085 12.8346C5.74085 13.652 5.90345 14.4611 6.21918 15.2151C6.53491 15.969 6.99747 16.6525 7.57991 17.226C8.16236 17.7994 8.85306 18.2512 9.6118 18.5552C10.3705 18.8591 11.1822 19.009 11.9994 18.9963C13.6169 18.9711 15.1597 18.3108 16.2946 17.158C17.4296 16.0052 18.0657 14.4523 18.0657 12.8346C18.0657 11.2169 17.4296 9.66402 16.2946 8.51123C15.1597 7.35844 13.6169 6.69816 11.9994 6.67292ZM11.9994 8.83405C12.5247 8.83405 13.0448 8.93751 13.5301 9.13852C14.0154 9.33953 14.4563 9.63415 14.8277 10.0056C15.1991 10.377 15.4937 10.8179 15.6948 11.3032C15.8958 11.7885 15.9992 12.3086 15.9992 12.8339C15.9992 13.3591 15.8958 13.8792 15.6948 14.3645C15.4937 14.8498 15.1991 15.2907 14.8277 15.6621C14.4563 16.0336 14.0154 16.3282 13.5301 16.5292C13.0448 16.7302 12.5247 16.8337 11.9994 16.8337C10.9386 16.8337 9.92124 16.4123 9.17113 15.6621C8.42102 14.912 7.99961 13.8947 7.99961 12.8339C7.99961 11.773 8.42102 10.7557 9.17113 10.0056C9.92124 9.25546 10.9386 8.83405 11.9994 8.83405Z" fill="#E1E0E1"/>
</g>
<defs>
<clipPath id="clip0_104_287">
<rect width="23.9958" height="23.9958" fill="white" transform="translate(0 0.835938)"/>
</clipPath>
</defs>
</svg>
