<svg width="28" height="28" viewBox="0 0 28 28" fill="none" xmlns="http://www.w3.org/2000/svg">
<path fill-rule="evenodd" clip-rule="evenodd" d="M6.0727 1.55273C5.24404 1.55273 4.44932 1.88192 3.86337 2.46787C3.27743 3.05382 2.94824 3.84853 2.94824 4.67719C2.94824 5.50585 3.27743 6.30057 3.86337 6.88652C4.44932 7.47247 5.24404 7.80165 6.0727 7.80165C6.90136 7.80165 7.69608 7.47247 8.28203 6.88652C8.86797 6.30057 9.19716 5.50585 9.19716 4.67719C9.19716 3.84853 8.86797 3.05382 8.28203 2.46787C7.69608 1.88192 6.90136 1.55273 6.0727 1.55273ZM4.65249 4.67719C4.65249 4.30053 4.80212 3.93929 5.06846 3.67295C5.3348 3.40661 5.69604 3.25698 6.0727 3.25698C6.44936 3.25698 6.8106 3.40661 7.07694 3.67295C7.34328 3.93929 7.49291 4.30053 7.49291 4.67719C7.49291 5.05385 7.34328 5.41509 7.07694 5.68143C6.8106 5.94777 6.44936 6.0974 6.0727 6.0974C5.69604 6.0974 5.3348 5.94777 5.06846 5.68143C4.80212 5.41509 4.65249 5.05385 4.65249 4.67719ZM2.94824 9.22186C2.94824 8.99586 3.03802 8.77912 3.19782 8.61931C3.35763 8.45951 3.57437 8.36973 3.80037 8.36973H8.34503C8.57103 8.36973 8.78777 8.45951 8.94758 8.61931C9.10738 8.77912 9.19716 8.99586 9.19716 9.22186V23.992C9.19716 24.218 9.10738 24.4348 8.94758 24.5946C8.78777 24.7544 8.57103 24.8441 8.34503 24.8441H3.80037C3.57437 24.8441 3.35763 24.7544 3.19782 24.5946C3.03802 24.4348 2.94824 24.218 2.94824 23.992V9.22186ZM4.65249 10.074V23.1399H7.49291V10.074H4.65249ZM10.9014 9.22186C10.9014 8.99586 10.9912 8.77912 11.151 8.61931C11.3108 8.45951 11.5275 8.36973 11.7535 8.36973H16.2982C16.5242 8.36973 16.7409 8.45951 16.9007 8.61931C17.0605 8.77912 17.1503 8.99586 17.1503 9.22186V9.71495L17.6446 9.50249C18.4967 9.13832 19.4007 8.91021 20.3236 8.82647C23.4765 8.54016 26.2397 11.017 26.2397 14.1983V23.992C26.2397 24.218 26.1499 24.4348 25.9901 24.5946C25.8303 24.7544 25.6135 24.8441 25.3875 24.8441H20.8429C20.6169 24.8441 20.4001 24.7544 20.2403 24.5946C20.0805 24.4348 19.9907 24.218 19.9907 23.992V16.0389C19.9907 15.6622 19.8411 15.301 19.5748 15.0346C19.3084 14.7683 18.9472 14.6186 18.5705 14.6186C18.1939 14.6186 17.8326 14.7683 17.5663 15.0346C17.3 15.301 17.1503 15.6622 17.1503 16.0389V23.992C17.1503 24.218 17.0605 24.4348 16.9007 24.5946C16.7409 24.7544 16.5242 24.8441 16.2982 24.8441H11.7535C11.5275 24.8441 11.3108 24.7544 11.151 24.5946C10.9912 24.4348 10.9014 24.218 10.9014 23.992V9.22186ZM12.6057 10.074V23.1399H15.4461V16.0389C15.4461 15.2102 15.7753 14.4155 16.3612 13.8295C16.9472 13.2436 17.7419 12.9144 18.5705 12.9144C19.3992 12.9144 20.1939 13.2436 20.7799 13.8295C21.3658 14.4155 21.695 15.2102 21.695 16.0389V23.1399H24.5354V14.1983C24.5354 12.035 22.6482 10.3262 20.4793 10.5239C19.7342 10.5917 19.0042 10.7757 18.316 11.0693L16.6345 11.7907C16.5048 11.8464 16.3633 11.8691 16.2227 11.8566C16.0821 11.844 15.9468 11.7968 15.829 11.7191C15.7112 11.6414 15.6145 11.5356 15.5476 11.4112C15.4808 11.2869 15.4459 11.1479 15.4461 11.0068V10.074H12.6057Z" fill="#E1E0E1"/>
</svg>
