<svg width="43" height="43" viewBox="0 0 43 43" fill="none" xmlns="http://www.w3.org/2000/svg">
<path d="M7.16634 35.8327C6.18092 35.8327 5.33765 35.4821 4.63651 34.781C3.93537 34.0798 3.5842 33.236 3.58301 32.2493V10.7493C3.58301 9.76393 3.93417 8.92065 4.63651 8.21952C5.33884 7.51838 6.18212 7.16721 7.16634 7.16602H35.833C36.8184 7.16602 37.6623 7.51718 38.3646 8.21952C39.067 8.92185 39.4175 9.76513 39.4163 10.7493V32.2493C39.4163 33.2348 39.0658 34.0786 38.3646 34.781C37.6635 35.4833 36.8196 35.8339 35.833 35.8327H7.16634ZM21.4997 23.291L35.833 14.3327V10.7493L21.4997 19.7077L7.16634 10.7493V14.3327L21.4997 23.291Z" fill="#2F2F2F"/>
</svg>
