<svg width="62" height="62" viewBox="0 0 62 62" fill="none" xmlns="http://www.w3.org/2000/svg">
<path d="M10.4111 26.7327C11.2798 23.9101 12.907 21.3802 15.1152 19.4193C13.9131 18.4583 15.1152 12.485 15.1152 12.485C15.1152 12.485 19.9212 14.6133 20.7802 15.609C20.7802 15.609 24.4873 11.1113 35.2343 11.1113C45.9814 11.1113 56.108 19.4205 56.108 30.5094C56.108 41.5982 48.0748 45.135 48.0748 45.135C47.6556 47.0916 47.0102 48.9927 46.1516 50.8H41.8938C41.2133 49.7558 40.6056 48.6659 40.0751 47.538C40.0751 47.538 36.6764 47.9508 34.2386 47.9508C32.5207 47.9161 30.8091 47.7322 29.123 47.4013C28.9776 48.6089 28.5671 49.7695 27.9209 50.8H23.2864C21.8444 49.5644 21.1233 45.6845 21.1233 45.6845C21.1233 45.6845 9.4502 40.3974 6.97755 37.2373C5.6374 34.7311 5.80895 29.1692 5.80895 29.1692C7.10695 27.9738 8.6918 27.1341 10.4098 26.7314" stroke="#E22E46" stroke-width="1.28985" stroke-linecap="round" stroke-linejoin="round"/>
<path d="M25.2087 17.7731C27.9595 15.7956 31.3021 14.8147 34.6853 14.9921C38.3815 14.9325 41.9968 16.0776 44.9847 18.2542" stroke="#E22E46" stroke-width="1.28985" stroke-linecap="round" stroke-linejoin="round"/>
<path d="M14.9781 28.4211C15.5124 28.4211 15.9455 27.988 15.9455 27.4537C15.9455 26.9194 15.5124 26.4863 14.9781 26.4863C14.4439 26.4863 14.0107 26.9194 14.0107 27.4537C14.0107 27.988 14.4439 28.4211 14.9781 28.4211Z" fill="#E22E46"/>
</svg>
