<svg width="64" height="64" viewBox="0 0 64 64" fill="none" xmlns="http://www.w3.org/2000/svg">
<path d="M12.2205 40.0234C18.5032 38.2323 24.2988 38.1078 28.9413 41.931M12.2205 36.0811C18.5032 34.29 24.2988 34.1643 28.9413 37.9874M12.2205 32.2434C18.5032 30.4523 24.2988 30.3266 28.9413 34.1497M12.2205 28.1211C18.5032 26.33 24.2988 26.2043 28.9413 30.0274M12.2205 24.1008C18.5032 22.311 24.2988 22.1852 28.9413 26.0084" stroke="#33302C" stroke-width="1.32379" stroke-linecap="round" stroke-linejoin="round"/>
<path d="M7.28015 12.7719L7.43504 50.6655C16.5547 46.8133 24.7331 47.3005 31.7955 52.9345C39.2842 48.6097 47.1184 46.3023 56.1057 50.7172L56.2605 13.1836C48.6792 10.213 40.424 8.7264 31.7968 14.8847C24.9581 9.79073 15.9311 9.62261 7.28015 12.7719Z" stroke="#E22E46" stroke-width="1.32379" stroke-linecap="round" stroke-linejoin="round"/>
<path d="M12.2205 20.3489C18.5032 18.5578 24.2988 18.4321 28.9413 22.2552M35.0639 31.7838C34.9619 35.3978 37.2177 37.921 40.6728 39.8881L47.9272 39.0184C52.4823 35.7486 52.4413 32.6099 52.2997 29.4738L35.0639 31.7838ZM36.9675 21.6383L35.0122 27.0261C37.309 27.1612 39.7329 26.1511 41.7781 28.5458L43.1681 24.8604C39.9487 25.1305 38.5719 23.0124 36.9675 21.6383Z" stroke="#33302C" stroke-width="1.32379" stroke-linecap="round" stroke-linejoin="round"/>
</svg>
