<svg width="51" height="51" viewBox="0 0 51 51" fill="none" xmlns="http://www.w3.org/2000/svg">
<path d="M10.5228 33.6714L21.0453 27.3579M29.4633 23.1489L39.9857 16.8355M25.2543 10.522V21.0444M25.2543 29.4624V39.9849M10.5228 16.8355L21.0453 23.1489M29.4633 27.3579L39.9857 33.6714M43.1425 18.94V30.5147M28.411 43.1416L39.9857 36.8282M9.47058 36.8282L22.0975 43.1416M7.36609 31.5669V18.94M9.47058 13.6787L22.0975 7.36523M41.038 13.6787L28.411 7.36523" stroke="#E22E46" stroke-width="3.15674" stroke-linecap="round" stroke-linejoin="round"/>
<path d="M25.2543 10.5215C26.9977 10.5215 28.411 9.10817 28.411 7.36475C28.411 5.62133 26.9977 4.20801 25.2543 4.20801C23.5109 4.20801 22.0975 5.62133 22.0975 7.36475C22.0975 9.10817 23.5109 10.5215 25.2543 10.5215Z" stroke="#E22E46" stroke-width="3.15674" stroke-linecap="round" stroke-linejoin="round"/>
<path d="M25.2543 46.2979C26.9977 46.2979 28.411 44.8845 28.411 43.1411C28.411 41.3977 26.9977 39.9844 25.2543 39.9844C23.5109 39.9844 22.0975 41.3977 22.0975 43.1411C22.0975 44.8845 23.5109 46.2979 25.2543 46.2979Z" stroke="#E22E46" stroke-width="3.15674" stroke-linecap="round" stroke-linejoin="round"/>
<path d="M7.36609 18.9404C9.10951 18.9404 10.5228 17.5271 10.5228 15.7837C10.5228 14.0403 9.10951 12.627 7.36609 12.627C5.62267 12.627 4.20935 14.0403 4.20935 15.7837C4.20935 17.5271 5.62267 18.9404 7.36609 18.9404Z" stroke="#E22E46" stroke-width="3.15674" stroke-linecap="round" stroke-linejoin="round"/>
<path d="M43.1426 18.9404C44.886 18.9404 46.2993 17.5271 46.2993 15.7837C46.2993 14.0403 44.886 12.627 43.1426 12.627C41.3992 12.627 39.9858 14.0403 39.9858 15.7837C39.9858 17.5271 41.3992 18.9404 43.1426 18.9404Z" stroke="#E22E46" stroke-width="3.15674" stroke-linecap="round" stroke-linejoin="round"/>
<path d="M43.1426 37.8809C44.886 37.8809 46.2993 36.4675 46.2993 34.7241C46.2993 32.9807 44.886 31.5674 43.1426 31.5674C41.3992 31.5674 39.9858 32.9807 39.9858 34.7241C39.9858 36.4675 41.3992 37.8809 43.1426 37.8809Z" stroke="#E22E46" stroke-width="3.15674" stroke-linecap="round" stroke-linejoin="round"/>
<path d="M7.36609 37.8809C9.10951 37.8809 10.5228 36.4675 10.5228 34.7241C10.5228 32.9807 9.10951 31.5674 7.36609 31.5674C5.62267 31.5674 4.20935 32.9807 4.20935 34.7241C4.20935 36.4675 5.62267 37.8809 7.36609 37.8809Z" stroke="#E22E46" stroke-width="3.15674" stroke-linecap="round" stroke-linejoin="round"/>
<path d="M25.2544 20.5186L29.4634 22.8861V27.6212L25.2544 29.9888L21.0454 27.6212V22.8861L25.2544 20.5186Z" stroke="#E22E46" stroke-width="3.15674" stroke-linecap="round" stroke-linejoin="round"/>
</svg>
