<svg width="54" height="54" viewBox="0 0 54 54" fill="none" xmlns="http://www.w3.org/2000/svg">
<path d="M22.1342 20.1633L31.5649 6.72168L42.5655 14.4286L38.5545 20.1633H22.1342ZM22.1342 20.1633H12.5004L20.3642 8.96159L26.8829 13.4425L22.1342 20.1633Z" stroke="#344054" stroke-width="2.15066" stroke-linecap="round" stroke-linejoin="round"/>
<path d="M44.8057 20.1631H8.96073C7.72411 20.1631 6.72083 21.1664 6.72083 22.403V44.8064C6.72083 46.043 7.72411 47.0463 8.96073 47.0463H44.8057C46.0424 47.0463 47.0456 46.043 47.0456 44.8064V22.403C47.0456 21.1664 46.0424 20.1631 44.8057 20.1631Z" stroke="#E22E46" stroke-width="2.15066" stroke-linecap="round" stroke-linejoin="round"/>
<path d="M35.8439 29.124H47.0456V38.0858H35.8439C35.5497 38.0858 35.2583 38.0278 34.9865 37.9152C34.7147 37.8026 34.4677 37.6375 34.2597 37.4294C34.0517 37.2213 33.8867 36.9742 33.7742 36.7023C33.6617 36.4304 33.6039 36.1391 33.604 35.8448V31.365C33.604 30.7708 33.84 30.201 34.26 29.7808C34.68 29.3605 35.2498 29.1243 35.8439 29.124Z" stroke="#344054" stroke-width="2.15066" stroke-linecap="round" stroke-linejoin="round"/>
</svg>
