<svg width="45" height="46" viewBox="0 0 45 46" fill="none" xmlns="http://www.w3.org/2000/svg">
<g clip-path="url(#clip0_116_308)">
<path d="M0.960352 22.404C0.959297 26.2144 1.95492 29.935 3.84809 33.2144L0.779297 44.419L12.2459 41.4125C15.4174 43.139 18.9708 44.0437 22.5818 44.0439H22.5913C34.5119 44.0439 44.2155 34.3438 44.2206 22.4211C44.2229 16.6437 41.975 11.211 37.8909 7.12371C33.8075 3.0368 28.3768 0.784863 22.5904 0.782227C10.6684 0.782227 0.965449 10.4818 0.960527 22.404" fill="url(#paint0_linear_116_308)"/>
<path d="M0.188086 22.3973C0.186855 26.3449 1.21816 30.1985 3.17883 33.5953L0 45.2016L11.8777 42.0873C15.1504 43.8717 18.8351 44.8124 22.5846 44.8139H22.5942C34.9425 44.8139 44.9947 34.7648 45 22.4153C45.0021 16.4303 42.6734 10.8023 38.4434 6.56859C34.2128 2.33543 28.5878 0.00246094 22.5942 0C10.2438 0 0.193008 10.0477 0.188086 22.3973ZM7.2617 33.0103L6.8182 32.3063C4.95387 29.3419 3.96984 25.9163 3.97125 22.3988C3.97512 12.134 12.3289 3.78281 22.6013 3.78281C27.5759 3.78492 32.2509 5.72414 35.7673 9.24258C39.2834 12.7614 41.2182 17.4389 41.217 22.4139C41.2124 32.6786 32.8584 41.0309 22.5942 41.0309H22.5868C19.2447 41.0291 15.9669 40.1316 13.1084 38.4355L12.4281 38.032L5.37961 39.88L7.2617 33.0103Z" fill="url(#paint1_linear_116_308)"/>
<path d="M16.9944 13.0341C16.575 12.1019 16.1336 12.0831 15.7348 12.0667C15.4082 12.0527 15.0348 12.0537 14.6618 12.0537C14.2885 12.0537 13.6818 12.1942 13.1691 12.754C12.6558 13.3144 11.2095 14.6687 11.2095 17.423C11.2095 20.1773 13.2157 22.8393 13.4953 23.2132C13.7754 23.5864 17.3683 29.4195 23.0587 31.6635C27.7879 33.5284 28.7503 33.1575 29.7767 33.064C30.8033 32.9708 33.0891 31.7101 33.5555 30.4028C34.0222 29.0957 34.0222 27.9753 33.8823 27.7412C33.7423 27.5079 33.369 27.3678 32.8091 27.0879C32.2493 26.8081 29.4967 25.4535 28.9836 25.2667C28.4703 25.08 28.0971 24.9868 27.7238 25.5474C27.3504 26.1071 26.2783 27.3678 25.9515 27.7412C25.6251 28.1154 25.2983 28.162 24.7387 27.882C24.1784 27.6011 22.3754 27.0106 20.2364 25.1036C18.5721 23.6196 17.4485 21.7871 17.1219 21.2265C16.7953 20.6668 17.0869 20.3634 17.3676 20.0845C17.6192 19.8336 17.9277 19.4307 18.2079 19.104C18.487 18.777 18.5802 18.5437 18.7668 18.1704C18.9537 17.7967 18.8602 17.4697 18.7204 17.1897C18.5802 16.9097 17.4922 14.141 16.9944 13.0341Z" fill="white"/>
</g>
<defs>
<linearGradient id="paint0_linear_116_308" x1="2172.85" y1="4364.46" x2="2172.85" y2="0.782227" gradientUnits="userSpaceOnUse">
<stop stop-color="#1FAF38"/>
<stop offset="1" stop-color="#60D669"/>
</linearGradient>
<linearGradient id="paint1_linear_116_308" x1="2250" y1="4520.16" x2="2250" y2="0" gradientUnits="userSpaceOnUse">
<stop stop-color="#F9F9F9"/>
<stop offset="1" stop-color="white"/>
</linearGradient>
<clipPath id="clip0_116_308">
<rect width="45" height="45.3516" fill="white"/>
</clipPath>
</defs>
</svg>
